<?xml version="1.0" encoding="utf-8"?>
<!-- Generator: Adobe Illustrator 27.1.0, SVG Export Plug-In . SVG Version: 6.00 Build 0)  -->
<svg version="1.1" id="Capa_1" xmlns="http://www.w3.org/2000/svg" xmlns:xlink="http://www.w3.org/1999/xlink" x="0px" y="0px"
	 viewBox="0 0 744 446" style="enable-background:new 0 0 744 446;" xml:space="preserve">
<style type="text/css">
	.st0{fill:#7DC1B5;}
	.st1{fill:#D7504C;}
</style>
<path class="st0" d="M383.7,41.2c14.2-6.7,30.5-10.3,46-6.7c12.7,2.7,24,11.2,30,22.7c7.6,14.2,8.5,30.9,5.9,46.5
	c-3.2,18.3-12.5,34.8-23.5,49.5c-3.5,4.5-6.6,10-12.4,12c-14.9,5.8-31.2,9.8-47.3,7.4c7.4-7,15.7-13.3,20.6-22.5
	c6.3-10.4,7.1-25.3-1.4-34.8c-7.6-8.1-20.7-7.8-29.9-2.8c-6.7,3.2-11.2,9.2-16.3,14.3c-1.6-0.8-2.4-2.5-3.6-3.8
	c6.4-7.9,14.5-15.2,24.7-17.4c6.8-2,13.7,0,20.5,0.5c-9.3-6.5-21.7-7.5-32.1-3.2c-6.5,2.2-11.5,6.9-16.6,11.3
	c1.8-18.5,5.2-37.4,13.7-54.1C366.2,51.1,375.1,45.6,383.7,41.2z"/>
<path class="st0" d="M347.4,152.1c4.2-4.4,10.3-8,16.6-6.6c7.1,1.9,12.2,8.9,12.6,16.1c0.4,4.2-1.1,8.4-0.9,12.6
	c6,4.1,13.8,3.8,20.7,3.6c11.3-0.5,22-4.5,32.3-8.7c-15.8,18.1-34.5,33.3-53.2,48.3c-4.2,3.3-8.5,6.4-12.9,9.5
	c-7.7-12.6-12.8-26.6-16.1-41c18.7,8.3,41.4,8.1,59.2-2.2c-8.6,1.3-17.2,3.3-25.9,2.4c-15.3-1.4-30.4-7.5-42.2-17.3
	C339.1,162.4,343,156.8,347.4,152.1z"/>
<path class="st1" d="M252.9,47.3c9.4-10.2,23.7-14.4,37.3-14.2c15.7,0.7,31.4,5.7,43.8,15.4c5.6,4.2,10.5,9.2,15.4,14.2
	c-8,13.7-13,29.1-14.9,44.9c-9-2.7-19.8-2-27,4.6c-7.6,7.4-9.6,19.4-6.5,29.3c4.8,14.7,16.7,25.6,29.2,33.9
	c3.7,20.2,12,39.5,25.1,55.4c2.7,3.3,5.7,6.3,8.4,9.7c-21.8-14.1-42.3-30.2-62-47.1c-14.2-12.7-27.7-26.2-39.1-41.4
	C249.7,135,240,115,238.8,93.6C237.8,77.2,241.1,59.4,252.9,47.3z"/>
<path class="st1" d="M329.9,148.5c3-12.5,8.6-25,19.2-32.7c-2.9,7-6.5,13.7-8.1,21.2c-2,7.2-2.3,14.6-3.7,21.9
	c-0.4,3.2-4.6,4.1-6.7,1.9c-5.7-4.6-11.5-9.1-16.7-14.1c-2.1-1.6-1.8-4.6-0.1-6.3C320.3,139.4,325.1,144.9,329.9,148.5z"/>
<g>
	<path d="M219,253.6h31.6v3.7h-27.6V277h25.9v3.7h-25.9v25.1h-4V253.6z"/>
	<path d="M285.3,294.9c0,3.7,0.1,9.5,0.1,10.9h-3.6c-0.1-1-0.2-3.4-0.2-6.5c-1.6,4.4-5.4,7.4-12,7.4c-5.4,0-12.2-2.1-12.2-13.5
		v-24.7h3.7v23.8c0,5.4,1.7,10.7,9.1,10.7c8.4,0,11.5-4.7,11.5-15.4v-19.2h3.7V294.9z"/>
	<path d="M297.6,277.9c0-3.3,0-6.4-0.1-9.4h3.7c0.1,1.2,0.2,6,0.1,7.1c1.6-3.8,4.7-8,12.4-8c6.6,0,12.5,3.7,12.5,14v24.2h-3.7v-23.6
		c0-6.6-2.8-11-9.2-11c-8.9,0-11.9,7.4-11.9,15.5v19h-3.7V277.9z"/>
	<path d="M367.2,250.8V295c0,3.6,0,7,0.1,10.7h-3.6c-0.1-0.9-0.2-4.4-0.2-6.3c-1.9,4.5-6,7.2-12.5,7.2c-9.7,0-15.5-7.9-15.5-19.1
		c0-11.5,6.3-20,16.5-20c7.5,0,10.4,3.2,11.6,5.6v-22.4H367.2z M339.4,287.4c0,10.2,5.3,15.7,11.7,15.7c9.8,0,12.5-6.8,12.5-16.9
		c0-9.6-2.3-15.1-11.9-15.1C344.4,271.1,339.4,277,339.4,287.4z"/>
	<path d="M404.5,298.7c0,3.3,0.3,5.9,0.5,7.1h-3.6c-0.3-0.9-0.5-2.5-0.7-5.7c-1.3,2.8-4.5,6.6-12.2,6.6c-8.7,0-12.4-5.6-12.4-11.2
		c0-8.2,6.3-11.9,17.5-11.9c3.1,0,5.6,0,7.1,0v-3.8c0-3.7-1.1-8.7-9.6-8.7c-7.5,0-8.7,4-9.5,7h-3.7c0.4-4.1,3-10.4,13.3-10.4
		c8.5,0,13.3,3.6,13.3,11.8V298.7z M400.8,286.7c-1.4,0-4.8,0-7.3,0c-8.3,0-13.4,2.2-13.4,8.6c0,4.7,3.4,7.9,8.6,7.9
		c10.7,0,12.2-7.1,12.2-15.1V286.7z"/>
	<path d="M444.2,294.8c-1.8,6.6-6.1,11.9-14.5,11.9c-9.3,0-16-6.9-16-19.4c0-10.2,5.4-19.7,16.4-19.7c9.5,0,13.3,6.7,14,11.9h-3.8
		c-1.1-4.3-4-8.4-10.3-8.4c-7.9,0-12.4,6.7-12.4,16c0,8.9,4.2,16,12,16c5.4,0,8.7-2.8,10.7-8.4H444.2z"/>
	<path d="M453.8,250.8h3.7v7.2h-3.7V250.8z M453.8,268.5h3.7v37.3h-3.7V268.5z"/>
	<path d="M500,287c0,10.4-5.7,19.6-16.9,19.6c-10.1,0-16.3-8.3-16.3-19.5c0-10.7,5.9-19.5,16.7-19.5C493.4,267.6,500,275.3,500,287z
		 M470.8,287.1c0,8.9,4.8,16,12.7,16c8.1,0,12.6-6.6,12.6-16c0-8.8-4.5-16-12.8-16C474.8,271.1,470.8,278.2,470.8,287.1z"/>
	<path d="M509.2,277.9c0-3.3,0-6.4-0.1-9.4h3.7c0.1,1.2,0.2,6,0.1,7.1c1.6-3.8,4.7-8,12.4-8c6.6,0,12.5,3.7,12.5,14v24.2h-3.7v-23.6
		c0-6.6-2.8-11-9.2-11c-8.9,0-11.9,7.4-11.9,15.5v19h-3.7V277.9z"/>
	<path d="M36.4,343h10.3l8,31.2h0.1V343h7.3v52.2h-8.4l-9.8-38.1h-0.1v38.1h-7.3V343z"/>
	<path d="M68.2,343h22.4v7.5H76.4v13.8h11.3v7.5H76.4v16h14.2v7.5H68.2V343z"/>
	<path d="M95,382.9V343h8.2v40.4c0,3.7,1.6,5.1,4.2,5.1c2.6,0,4.2-1.3,4.2-5.1V343h7.9v39.8c0,8.4-4.2,13.1-12.2,13.1
		C99.2,396,95,391.2,95,382.9z"/>
	<path d="M125.3,343H137l5.2,37.4h0.1l5.2-37.4h11.7v52.2h-7.8v-39.5h-0.1l-6,39.5h-6.9l-6-39.5h-0.1v39.5h-7.2V343z"/>
	<path d="M164.8,382.9v-27.4c0-8.4,4.4-13.1,12.5-13.1c8.1,0,12.5,4.8,12.5,13.1v27.4c0,8.4-4.4,13.1-12.5,13.1
		C169.2,396,164.8,391.2,164.8,382.9z M181.5,383.4v-28.5c0-3.7-1.6-5.1-4.3-5.1c-2.6,0-4.3,1.4-4.3,5.1v28.5c0,3.7,1.6,5.1,4.3,5.1
		C179.9,388.5,181.5,387.1,181.5,383.4z"/>
	<path d="M195.2,343h8.2v44.7h13.5v7.5h-21.7V343z"/>
	<path d="M220,382.9v-27.4c0-8.4,4.4-13.1,12.5-13.1c8.1,0,12.5,4.8,12.5,13.1v27.4c0,8.4-4.4,13.1-12.5,13.1
		C224.4,396,220,391.2,220,382.9z M236.7,383.4v-28.5c0-3.7-1.6-5.1-4.3-5.1c-2.6,0-4.3,1.4-4.3,5.1v28.5c0,3.7,1.6,5.1,4.3,5.1
		C235,388.5,236.7,387.1,236.7,383.4z"/>
	<path d="M249.8,382.9v-27.4c0-8.4,4.2-13.1,12.2-13.1c8.1,0,12.2,4.8,12.2,13.1v4.5h-7.8v-5c0-3.7-1.6-5.1-4.3-5.1
		c-2.6,0-4.3,1.4-4.3,5.1v28.6c0,3.7,1.6,5.1,4.3,5.1c2.6,0,4.3-1.3,4.3-5.1v-10.2h-4.1v-7.5h11.9v17.1c0,8.4-4.2,13.1-12.2,13.1
		C254,396,249.8,391.2,249.8,382.9z"/>
	<path d="M279.6,343h8.2v52.2h-8.2V343z"/>
	<path d="M293.3,383.2v-28c0-8.1,4.2-12.8,12.1-12.8s12.1,4.8,12.1,12.8v5.5h-7.8v-6c0-3.4-1.6-4.8-4.1-4.8c-2.5,0-4.1,1.4-4.1,4.8
		v29.2c0,3.4,1.6,4.8,4.1,4.8c2.5,0,4.1-1.3,4.1-4.8v-8h7.8v7.4c0,8.1-4.2,12.8-12.1,12.8S293.3,391.2,293.3,383.2z"/>
	<path d="M328.8,343h11.1l8.5,52.2h-8.2l-1.5-10.4v0.1h-9.3l-1.5,10.2h-7.6L328.8,343z M337.7,377.9l-3.7-25.8h-0.1l-3.6,25.8H337.7
		z"/>
	<path d="M363.7,383.2v-28c0-8.1,4.2-12.8,12.1-12.8c7.9,0,12.1,4.8,12.1,12.8v5.5h-7.8v-6c0-3.4-1.6-4.8-4.1-4.8s-4.1,1.4-4.1,4.8
		v29.2c0,3.4,1.6,4.8,4.1,4.8s4.1-1.3,4.1-4.8v-8h7.8v7.4c0,8.1-4.2,12.8-12.1,12.8C367.9,396,363.7,391.2,363.7,383.2z"/>
	<path d="M399.2,343h11.1l8.5,52.2h-8.2l-1.5-10.4v0.1h-9.3l-1.5,10.2h-7.6L399.2,343z M408.1,377.9l-3.7-25.8h-0.1l-3.6,25.8H408.1
		z"/>
	<path d="M422.7,343h12.2c8.5,0,12.2,4,12.2,12v3.2c0,5.4-1.7,8.8-5.4,10.3v0.1c4.1,1.3,5.4,5.1,5.4,11v9.2c0,2.5,0.1,4.4,0.9,6.3
		h-8.4c-0.4-1.3-0.7-2.2-0.7-6.4v-9.5c0-4.8-1.4-6.4-5.1-6.4h-2.8v22.4h-8.2V343z M433.9,365.4c3.1,0,4.9-1.3,4.9-5.5v-4
		c0-3.7-1.3-5.4-4.2-5.4h-3.7v14.9H433.9z"/>
	<path d="M452.8,343h12.5c8.2,0,12.2,4.5,12.2,12.9v26.4c0,8.4-4,12.9-12.2,12.9h-12.5V343z M465.1,387.8c2.6,0,4.2-1.3,4.2-5.1
		v-27.1c0-3.7-1.6-5.1-4.2-5.1H461v37.3H465.1z"/>
	<path d="M483,343h8.2v52.2H483V343z"/>
	<path d="M496.8,382.9v-27.4c0-8.4,4.4-13.1,12.5-13.1s12.5,4.8,12.5,13.1v27.4c0,8.4-4.4,13.1-12.5,13.1S496.8,391.2,496.8,382.9z
		 M513.5,383.4v-28.5c0-3.7-1.6-5.1-4.3-5.1s-4.3,1.4-4.3,5.1v28.5c0,3.7,1.6,5.1,4.3,5.1S513.5,387.1,513.5,383.4z"/>
	<path d="M527.2,343h8.2v52.2h-8.2V343z"/>
	<path d="M541.5,343h10.3l8,31.2h0.1V343h7.3v52.2h-8.4l-9.8-38.1h-0.1v38.1h-7.3V343z"/>
	<path d="M573.3,343H595v7.5h-13.5V365h10.6v7.5h-10.6v22.7h-8.2V343z"/>
	<path d="M602.9,343H614l8.5,52.2h-8.2l-1.5-10.4v0.1h-9.3l-1.5,10.2h-7.6L602.9,343z M611.9,377.9l-3.7-25.8h-0.1l-3.6,25.8H611.9z
		"/>
	<path d="M626.5,343h10.3l8,31.2h0.1V343h7.3v52.2h-8.4l-9.8-38.1h-0.1v38.1h-7.3V343z"/>
	<path d="M664.7,350.5h-8.6V343h25.4v7.5h-8.6v44.7h-8.2V350.5z"/>
	<path d="M685.5,343h8.2v52.2h-8.2V343z"/>
	<path d="M699.8,343h8.2v44.7h13.5v7.5h-21.7V343z"/>
</g>
</svg>
